<?xml version="1.0" standalone="no"?>
<!DOCTYPE svg PUBLIC "-//W3C//DTD SVG 20010904//EN"
 "http://www.w3.org/TR/2001/REC-SVG-20010904/DTD/svg10.dtd">
<svg version="1.0" xmlns="http://www.w3.org/2000/svg"
 width="512.000000pt" height="512.000000pt" viewBox="0 0 512.000000 512.000000"
 preserveAspectRatio="xMidYMid meet">
<metadata>
Created by potrace 1.14, written by Peter Selinger 2001-2017
</metadata>
<g transform="translate(0.000000,512.000000) scale(0.100000,-0.100000)"
fill="#000000" stroke="none">
<path d="M1338 3954 c-2 -1 -30 -4 -63 -5 -33 -1 -76 -6 -95 -10 -19 -4 -53
-10 -75 -14 -73 -11 -248 -76 -354 -131 -232 -120 -420 -298 -554 -520 -78
-129 -151 -324 -172 -459 -3 -22 -10 -62 -14 -89 -9 -54 -7 -317 2 -356 4 -14
9 -41 11 -60 12 -88 72 -274 117 -363 152 -302 406 -542 704 -666 44 -19 89
-37 100 -42 11 -5 54 -17 95 -28 445 -115 908 -10 1255 284 81 69 84 72 156
155 103 120 195 271 243 400 l17 45 499 0 c274 0 502 -4 506 -8 5 -4 8 -213 8
-465 l1 -457 462 0 c314 -1 463 2 466 10 2 5 3 214 2 463 0 300 3 452 10 453
5 1 109 2 230 3 l220 1 3 465 2 465 -1197 0 c-1128 0 -1199 1 -1215 18 -10 9
-18 24 -18 32 0 28 -111 230 -171 310 -99 134 -274 297 -384 359 -16 9 -50 28
-75 43 -113 65 -301 128 -455 153 -63 10 -261 21 -267 14z m192 -951 c160 -50
284 -182 319 -343 14 -61 6 -196 -13 -250 -54 -147 -176 -259 -326 -300 -69
-19 -188 -15 -254 9 -196 69 -315 229 -321 431 -4 130 40 239 134 335 120 122
299 168 461 118z"/>
</g>
</svg>
